HIERARCHY
ROOT hip
{
  OFFSET 8.46145 83.2713 44.5361
  CHANNELS 6 Xposition Yposition Zposition Zrotation Xrotation Yrotation
  JOINT abdomen
  {
    OFFSET 0 20.6881 -0.73152
    CHANNELS 3 Zrotation Xrotation Yrotation
    JOINT chest
    {
      OFFSET 0 11.7043 -0.48768
      CHANNELS 3 Zrotation Xrotation Yrotation
      JOINT neck
      {
        OFFSET 0 22.1894 -2.19456
        CHANNELS 3 Zrotation Xrotation Yrotation
        JOINT head
        {
          OFFSET -0.24384 7.07133 1.2192
          CHANNELS 3 Zrotation Xrotation Yrotation
          JOINT leftEye
          {
            OFFSET 4.14528 8.04674 8.04672
            CHANNELS 3 Zrotation Xrotation Yrotation
            End Site
            {
              OFFSET 1 0 0
            }
          }
          JOINT rightEye
          {
            OFFSET -3.6576 8.04674 8.04672
            CHANNELS 3 Zrotation Xrotation Yrotation
            End Site
            {
              OFFSET 1 0 0
            }
          }
        }
      }
      JOINT rCollar
      {
        OFFSET -2.68224 19.2634 -4.8768
        CHANNELS 3 Zrotation Xrotation Yrotation
        JOINT rShldr
        {
          OFFSET -8.77824 -1.95073 1.46304
          CHANNELS 3 Zrotation Xrotation Yrotation
          JOINT rForeArm
          {
            OFFSET -28.1742 -1.7115 0.48768
            CHANNELS 3 Zrotation Xrotation Yrotation
            JOINT rHand
            {
              OFFSET -22.5879 0.773209 7.07136
              CHANNELS 3 Zrotation Xrotation Yrotation
              JOINT rThumb1
              {
                OFFSET -1.2192 -0.487915 3.41376
                CHANNELS 3 Zrotation Xrotation Yrotation
                JOINT rThumb2
                {
                  OFFSET -3.37035 -0.52449 3.41376
                  CHANNELS 3 Zrotation Xrotation Yrotation
                  End Site
                  {
                    OFFSET -1.78271 -1.18214 1.43049
                  }
                }
              }
              JOINT rIndex1
              {
                OFFSET -7.75947 0.938293 5.60832
                CHANNELS 3 Zrotation Xrotation Yrotation
                JOINT rIndex2
                {
                  OFFSET -2.54057 -0.884171 1.56538
                  CHANNELS 3 Zrotation Xrotation Yrotation
                  End Site
                  {
                    OFFSET -1.62519 -0.234802 1.16502
                  }
                }
              }
              JOINT rMid1
              {
                OFFSET -8.24714 1.18213 3.41376
                CHANNELS 3 Zrotation Xrotation Yrotation
                JOINT rMid2
                {
                  OFFSET -3.10165 -0.590103 1.0647
                  CHANNELS 3 Zrotation Xrotation Yrotation
                  End Site
                  {
                    OFFSET -2.48547 -0.328903 0.83742
                  }
                }
              }
              JOINT rRing1
              {
                OFFSET -8.82822 0.546677 1.51678
                CHANNELS 3 Zrotation Xrotation Yrotation
                JOINT rRing2
                {
                  OFFSET -2.60934 -0.819778 -0.0198488
                  CHANNELS 3 Zrotation Xrotation Yrotation
                  End Site
                  {
                    OFFSET -2.33842 -0.294052 0.168128
                  }
                }
              }
              JOINT rPinky1
              {
                OFFSET -8.27202 -0.0477905 -0.4584
                CHANNELS 3 Zrotation Xrotation Yrotation
                JOINT rPinky2
                {
                  OFFSET -1.82734 -0.647385 -0.700984
                  CHANNELS 3 Zrotation Xrotation Yrotation
                  End Site
                  {
                    OFFSET -1.69225 -0.51767 -0.607171
                  }
                }
              }
            }
          }
        }
      }
      JOINT lCollar
      {
        OFFSET 2.68224 19.2634 -4.8768
        CHANNELS 3 Zrotation Xrotation Yrotation
        JOINT lShldr
        {
          OFFSET 8.77824 -1.95073 1.46304
          CHANNELS 3 Zrotation Xrotation Yrotation
          JOINT lForeArm
          {
            OFFSET 28.1742 -1.7115 0.48768
            CHANNELS 3 Zrotation Xrotation Yrotation
            JOINT lHand
            {
              OFFSET 22.5879 0.773209 7.07136
              CHANNELS 3 Zrotation Xrotation Yrotation
              JOINT lThumb1
              {
                OFFSET 1.2192 -0.487915 3.41376
                CHANNELS 3 Zrotation Xrotation Yrotation
                JOINT lThumb2
                {
                  OFFSET 3.37035 -0.52449 3.41376
                  CHANNELS 3 Zrotation Xrotation Yrotation
                  End Site
                  {
                    OFFSET 1.78271 -1.18214 1.43049
                  }
                }
              }
              JOINT lIndex1
              {
                OFFSET 7.75947 0.938293 5.60832
                CHANNELS 3 Zrotation Xrotation Yrotation
                JOINT lIndex2
                {
                  OFFSET 2.54057 -0.884171 1.56538
                  CHANNELS 3 Zrotation Xrotation Yrotation
                  End Site
                  {
                    OFFSET 1.62519 -0.234802 1.16502
                  }
                }
              }
              JOINT lMid1
              {
                OFFSET 8.24714 1.18213 3.41376
                CHANNELS 3 Zrotation Xrotation Yrotation
                JOINT lMid2
                {
                  OFFSET 3.10165 -0.590103 1.0647
                  CHANNELS 3 Zrotation Xrotation Yrotation
                  End Site
                  {
                    OFFSET 2.48547 -0.328903 0.83742
                  }
                }
              }
              JOINT lRing1
              {
                OFFSET 8.82822 0.546677 1.51678
                CHANNELS 3 Zrotation Xrotation Yrotation
                JOINT lRing2
                {
                  OFFSET 2.60934 -0.819778 -0.0198488
                  CHANNELS 3 Zrotation Xrotation Yrotation
                  End Site
                  {
                    OFFSET 2.33842 -0.294052 0.168128
                  }
                }
              }
              JOINT lPinky1
              {
                OFFSET 8.27202 -0.0477905 -0.4584
                CHANNELS 3 Zrotation Xrotation Yrotation
                JOINT lPinky2
                {
                  OFFSET 1.82734 -0.647385 -0.700984
                  CHANNELS 3 Zrotation Xrotation Yrotation
                  End Site
                  {
                    OFFSET 1.69225 -0.51767 -0.607171
                  }
                }
              }
            }
          }
        }
      }
    }
  }
  JOINT rButtock
  {
    OFFSET -8.77824 4.35084 1.2192
    CHANNELS 3 Zrotation Xrotation Yrotation
    JOINT rThigh
    {
      OFFSET 0 -1.70687 -2.19456
      CHANNELS 3 Zrotation Xrotation Yrotation
      JOINT rShin
      {
        OFFSET 0 -36.8199 0.73152
        CHANNELS 3 Zrotation Xrotation Yrotation
        JOINT rFoot
        {
          OFFSET 0.73152 -45.1104 -5.12064
          CHANNELS 3 Zrotation Xrotation Yrotation
          End Site
          {
            OFFSET -1.1221 -3.69964 12.103
          }
        }
      }
    }
  }
  JOINT lButtock
  {
    OFFSET 8.77824 4.35084 1.2192
    CHANNELS 3 Zrotation Xrotation Yrotation
    JOINT lThigh
    {
      OFFSET 0 -1.70687 -2.19456
      CHANNELS 3 Zrotation Xrotation Yrotation
      JOINT lShin
      {
        OFFSET 0 -36.8199 0.73152
        CHANNELS 3 Zrotation Xrotation Yrotation
        JOINT lFoot
        {
          OFFSET -0.73152 -45.1104 -5.12064
          CHANNELS 3 Zrotation Xrotation Yrotation
          End Site
          {
            OFFSET 1.1221 -3.69964 12.103
          }
        }
      }
    }
  }
}
MOTION
Frames:	4
Frame Time:	0.00833333
68.9271 85.1968 37.1528 -0.443817 -0.00111774 0.00758101 0.583969 -0.00303824 0.0166886 0.161171 -0.0046852 0.0279254 -3.80093e-015 7.95139e-016 -1.42876e-016 -1.1514e-014 3.18055e-015 -4.31735e-016 -0 0 0 -0 0 0 -1.88978e-015 1.12593e-017 9.93923e-017 -3.98017e-014 2.42269e-016 -7.95139e-016 -7.01163e-013 2.17272e-013 -6.04305e-014 -8.05941e-012 -1.73937e-013 -2.8943e-013 -1.9007e-011 9.49248e-014 -7.34708e-013 -3.28329e-011 1.65389e-013 -1.26904e-012 -1.9005e-011 9.38264e-014 -7.50611e-013 7.73091 5.47488 0.417314 -1.90095e-011 9.38264e-014 -7.34708e-013 2.90554 0.965183 0.102902 -1.90033e-011 9.44227e-014 -7.33118e-013 10.2786 0.731801 0.0259123 -1.90187e-011 9.81996e-014 -7.21986e-013 2.22167 -0.733487 -0.20892 -2.18543e-015 9.31803e-018 -2.98177e-016 -4.17193e-014 5.40446e-016 -2.5842e-015 -7.07773e-013 -2.00971e-013 3.18055e-015 -8.05697e-012 2.65874e-013 -3.30778e-013 -1.90125e-011 1.37439e-013 -7.25166e-013 -3.2813e-011 2.3218e-013 -1.2595e-012 -1.90149e-011 1.35571e-013 -7.15625e-013 -7.73091 5.47488 -0.417314 -1.90107e-011 1.36167e-013 -7.31528e-013 -2.90554 0.965183 -0.102902 -1.90149e-011 1.36664e-013 -7.29142e-013 -10.2786 0.731801 -0.0259123 -1.90034e-011 1.41932e-013 -7.41069e-013 -2.22167 -0.733487 0.20892 -2.03217e-016 0 -3.88251e-019 0.939984 -4.56521 -0.0787563 -0.00191295 2.71743 -0.00754173 -0.501033 1.84802 0.0947591 2.03217e-016 0 3.88251e-019 -0.0507658 -2.31868 0.0217186 0.00816018 -1.35176 0.0697848 0.492788 3.67058 -0.130805 
66.2985 84.0889 33.8129 0.264742 0.548987 -23.2396 0.274307 1.15598 -0.897231 0.628136 -0.643014 -0.227881 -2.2468 1.43987 -1.3332 3.37404 -0.0909314 -2.42448 -0 0 0 -0 0 0 1.16009e-014 3.02815e-012 -2.91022e-014 19.8991 3.91786 -0.450741 -4.15863 -1.87751 6.50835 0.0441841 4.66557 0.647875 9.6883e-011 7.57523e-011 2.07011e-011 1.67549e-010 1.31975e-010 3.42861e-011 9.68853e-011 7.57508e-011 2.06868e-011 7.73091 5.47488 0.417314 9.68816e-011 7.57512e-011 2.07e-011 2.90554 0.965183 0.102902 9.68897e-011 7.57523e-011 2.07003e-011 10.2786 0.731801 0.0259123 9.68736e-011 7.5755e-011 2.07092e-011 2.22167 -0.733487 -0.20892 1.13059e-014 3.02815e-012 -2.94318e-014 -22.7843 2.25887 0.483364 2.81682 -1.08839 -4.58578 -0.00116667 0.806117 -0.113263 -2.54355e-012 -4.24693e-010 -2.04001e-010 -4.9575e-012 -7.35392e-010 -3.53143e-010 -2.54583e-012 -4.24695e-010 -2.03994e-010 -7.73091 5.47488 -0.417314 -2.54153e-012 -4.24693e-010 -2.04004e-010 -2.90554 0.965183 -0.102902 -2.54544e-012 -4.24693e-010 -2.04003e-010 -10.2786 0.731801 -0.0259123 -2.53527e-012 -4.24688e-010 -2.04012e-010 -2.22167 -0.733487 0.20892 -2.03217e-016 0 -3.88251e-019 2.40855 -8.37272 5.64905 0.0138749 9.57362 0.132389 -1.06267 -2.64799 -4.95897 2.03217e-016 0 3.88251e-019 1.95973 -3.79816 -2.61337 -0.0305629 3.56889 -0.103279 1.59359 -2.69037 8.89704 
66.2101 84.0924 33.8296 1.31301 1.16543 -47.8184 0.0242922 2.37146 -1.8591 1.10537 -1.31425 -0.496514 -4.55051 2.96324 -2.7485 6.9351 -0.188485 -4.99355 -0 0 0 -0 0 0 2.56958e-014 6.43895e-012 -6.23656e-014 41.0119 8.07202 -0.936659 -8.09254 -3.78027 13.4081 -0.0252962 9.59317 1.34685 2.42502e-010 1.9253e-010 -1.52965e-012 4.18663e-010 3.34839e-010 -6.05857e-012 2.42505e-010 1.92528e-010 -1.54235e-012 7.73091 5.47488 0.417314 2.42502e-010 1.92529e-010 -1.53204e-012 2.90554 0.965183 0.102902 2.42512e-010 1.9253e-010 -1.53308e-012 10.2786 0.731801 0.0259123 2.42495e-010 1.92532e-010 -1.52667e-012 2.22167 -0.733487 -0.20892 2.53997e-014 6.43895e-012 -6.26234e-014 -46.9071 4.66734 0.99211 5.61466 -2.22056 -9.45345 0.00114186 1.62653 -0.228617 1.02849e-011 -8.83353e-010 -3.60142e-010 1.69064e-011 -1.52964e-009 -6.23594e-010 1.02829e-011 -8.83354e-010 -3.60138e-010 -7.73091 5.47488 -0.417314 1.02872e-011 -8.83351e-010 -3.6014e-010 -2.90554 0.965183 -0.102902 1.02836e-011 -8.8335e-010 -3.6014e-010 -10.2786 0.731801 -0.0259123 1.02924e-011 -8.83345e-010 -3.60147e-010 -2.22167 -0.733487 0.20892 -2.03217e-016 0 -3.88251e-019 4.83686 -12.219 11.8502 -0.00732902 16.8019 0.288428 -2.52126 -7.2857 -10.397 2.03217e-016 0 3.88251e-019 3.97177 -5.37344 -5.44009 -0.0389997 8.79861 -0.290231 4.93063 -9.01918 18.6538 
66.1291 84.0908 33.8452 2.65819 0.621625 -69.7398 -0.233967 3.4705 -2.72953 1.54496 -1.91953 -0.739866 -6.53907 4.31025 -4.0097 10.0991 -0.270842 -7.27353 -0 0 0 -0 0 0 3.85822e-014 9.08444e-012 -8.75052e-014 59.8856 11.7506 -1.37795 -11.2191 -5.3424 19.6032 -0.192152 13.9894 1.99642 3.28663e-010 2.27067e-010 6.35728e-011 5.68313e-010 3.95593e-010 1.05396e-010 3.28666e-010 2.27065e-010 6.35616e-011 7.73091 5.47488 0.417314 3.28664e-010 2.27066e-010 6.35695e-011 2.90554 0.965183 0.102902 3.28676e-010 2.27068e-010 6.35672e-011 10.2786 0.731801 0.0259123 3.28658e-010 2.27069e-010 6.35715e-011 2.22167 -0.733487 -0.20892 3.82886e-014 9.08444e-012 -8.7699e-014 -68.4678 6.77467 1.45916 7.93269 -3.18162 -13.7765 0.00606839 2.41831 -0.340057 3.03943e-011 -1.27436e-009 -6.10554e-010 5.07535e-011 -2.20664e-009 -1.05691e-009 3.03924e-011 -1.27436e-009 -6.10552e-010 -7.73091 5.47488 -0.417314 3.03969e-011 -1.27435e-009 -6.10548e-010 -2.90554 0.965183 -0.102902 3.03934e-011 -1.27435e-009 -6.10549e-010 -10.2786 0.731801 -0.0259123 3.0401e-011 -1.27435e-009 -6.10553e-010 -2.22167 -0.733487 0.20892 -2.03217e-016 0 -3.88251e-019 7.66284 -15.3933 17.5727 -0.0628138 23.2854 0.442767 -4.57298 -11.2642 -15.3532 2.03217e-016 0 3.88251e-019 5.57152 -6.70495 -7.9208 -0.0170087 13.4098 -0.461345 9.71103 -13.794 27.79 
